<svg width="615" height="500" xmlns="http://www.w3.org/2000/svg"><path d="M614.462 59.498a251.668 251.668 0 01-72.39 19.85c26.044-15.593 45.984-40.322 55.422-69.68-24.428 14.428-51.376 24.9-80.1 30.593C494.402 15.723 461.67.441 425.396.441c-69.619 0-126.065 56.447-126.065 126.005 0 9.88 1.105 19.518 3.263 28.735-104.749-5.261-197.63-55.442-259.799-131.697-10.863 18.574-17.048 40.22-17.048 63.353 0 43.725 22.27 82.31 56.064 104.89a126.18 126.18 0 01-57.098-15.823v1.586c0 61.044 43.474 111.998 101.104 123.594-10.562 2.842-21.686 4.418-33.233 4.418a120.86 120.86 0 01-23.715-2.34c16.065 50.101 62.59 86.547 117.731 87.55-43.122 33.786-97.49 53.866-156.526 53.866-10.19 0-20.21-.622-30.08-1.727 55.793 35.824 122.028 56.707 193.213 56.707 231.877 0 358.634-192.068 358.634-358.634l-.431-16.306c24.769-17.67 46.184-39.859 63.052-65.12z" fill="#1DA1F2"/></svg>